<svg xmlns="http://www.w3.org/2000/svg" xmlns:xlink="http://www.w3.org/1999/xlink" viewBox="0 0 114.15 150.49"><defs><style>.cls-1,.cls-2{fill:#333;}.cls-1{opacity:0.36;}.cls-2{opacity:0.8;}.cls-3{fill:#fff;}.cls-4{fill:url(#_6-绿-42);}.cls-5{fill:url(#_6-绿-42-2);}</style><linearGradient id="_6-绿-42" x1="57.08" y1="129.36" x2="57.08" y2="3.56" gradientUnits="userSpaceOnUse"><stop offset="0" stop-color="#0f9c47"/><stop offset="1" stop-color="#08540c"/></linearGradient><linearGradient id="_6-绿-42-2" x1="57.08" y1="82.39" x2="57.08" y2="31.76" xlink:href="#_6-绿-42"/></defs><g id="图层_2" data-name="图层 2"><g id="图层_1-2" data-name="图层 1"><ellipse class="cls-1" cx="57.08" cy="134.62" rx="42.83" ry="15.87"/><ellipse class="cls-2" cx="57.08" cy="134.62" rx="34.83" ry="9.44"/><path class="cls-3" d="M57.08,132.92a7.13,7.13,0,0,1-6.24-3.6l-8.76-15.17H34.92A35,35,0,0,1,0,79.23V34.92A35,35,0,0,1,34.92,0H79.23a35,35,0,0,1,34.92,34.92V79.23a35,35,0,0,1-34.92,34.92H72.07l-8.75,15.17A7.16,7.16,0,0,1,57.08,132.92Z"/><path class="cls-4" d="M79.23,3.56H34.92A31.36,31.36,0,0,0,3.56,34.92V79.24a31.36,31.36,0,0,0,31.36,31.35h9.22l9.78,16.94a3.64,3.64,0,0,0,6.31,0L70,110.59h9.22a31.36,31.36,0,0,0,31.36-31.35V34.92A31.36,31.36,0,0,0,79.23,3.56Z"/><rect class="cls-3" x="17.81" y="17.81" width="78.54" height="78.54" rx="17.11" transform="translate(114.15 0) rotate(90)"/><path class="cls-5" d="M81.91,41.53a1.39,1.39,0,0,0-1.21,0l-17.6,8.8V42.61a1.26,1.26,0,0,0-.6-1.08,1.37,1.37,0,0,0-1.2,0l-17.6,8.8V33a1.14,1.14,0,0,0-1.21-1.21H32.85A1.14,1.14,0,0,0,31.64,33V81.19a1.14,1.14,0,0,0,1.21,1.2H81.07a1.52,1.52,0,0,0,1.44-1.2V42.61A1.26,1.26,0,0,0,81.91,41.53Zm-28.57,30a1.14,1.14,0,0,1-1.21,1.21H42.49a1.14,1.14,0,0,1-1.21-1.21V61.9a1.15,1.15,0,0,1,1.21-1.21h9.64a1.14,1.14,0,0,1,1.21,1.21Zm19.29,0a1.14,1.14,0,0,1-1.21,1.21H61.78a1.14,1.14,0,0,1-1.21-1.21V61.9a1.14,1.14,0,0,1,1.21-1.21h9.64a1.15,1.15,0,0,1,1.21,1.21Z"/></g></g></svg>